<?xml version="1.0" encoding="UTF-8"?>
<svg width="1176px" height="333px" viewBox="0 0 1176 333" version="1.1" xmlns="http://www.w3.org/2000/svg" xmlns:xlink="http://www.w3.org/1999/xlink">
    <title>logo-HD</title>
    <defs>
        <polygon id="path-1" points="0 0 34.44731 0 34.44731 145.474 0 145.474"></polygon>
        <polygon id="path-3" points="0 0 34.44731 0 34.44731 145.474 0 145.474"></polygon>
        <path d="M46.7301,0 C59.1502,0 68.8258,4.5418 75.5851,14.001 L76.1337,14.001 L76.1337,2.7319 L110.1009,2.7319 L110.1009,103.7783 L76.6827,103.7783 L76.6827,90.4944 L76.1337,90.4944 C68.9975,101.5927 60.0769,106.3053 46.7301,106.3053 C22.267,106.3053 0,86.1233 0,53.238 C0,20.3527 21.1691,0 46.7301,0 Z M55.1359,30.3583 C43.0934,30.3583 33.9669,39.2711 33.9669,53.0673 C33.9669,66.8634 42.9217,76.1519 55.1359,76.1519 C67.3505,76.1519 76.1337,66.5219 76.1337,53.0673 C76.1337,39.2711 67.1788,30.3583 55.1359,30.3583 Z" id="path-5"></path>
        <path d="M33.4179,-2.84217094e-14 L33.4179,18.1672 L34.1386,18.1672 C40.1771,6.1809 50.573,0.1707 65.1892,0.1707 L65.1892,32.5097 C44.9118,32.5097 33.9669,39.4077 33.9669,63.4144 L33.9669,101.2171 L0,101.2171 L0,-2.84217094e-14 L33.4179,-2.84217094e-14 Z" id="path-7"></path>
        <path d="M46.7304,0 C59.1506,0 68.8262,4.5418 75.585,14.001 L76.134,14.001 L76.134,2.7319 L110.1013,2.7319 L110.1013,103.7783 L76.683,103.7783 L76.683,90.4944 L76.134,90.4944 C68.9975,101.5927 60.0772,106.3053 46.7304,106.3053 C22.2674,106.3053 5.68434189e-14,86.1233 5.68434189e-14,53.238 C5.68434189e-14,20.3527 21.1694,0 46.7304,0 Z M55.1363,30.3583 C43.0934,30.3583 33.9672,39.2711 33.9672,53.0673 C33.9672,66.8634 42.9221,76.1519 55.1363,76.1519 C67.3509,76.1519 76.134,66.5219 76.134,53.0673 C76.134,39.2711 67.1792,30.3583 55.1363,30.3583 Z" id="path-9"></path>
        <path d="M63.7139,0 C88.3483,0 102.6214,15.9817 102.6214,40.5347 L102.6214,103.7783 L68.6545,103.7783 L68.6545,53.6137 C68.6545,40.7054 64.0912,30.3583 51.4993,30.3583 C39.7995,30.3583 33.9669,39.4419 33.9669,55.6285 L33.9669,103.7783 L0,103.7783 L0,2.5612 L33.4179,2.5612 L33.4179,14.001 L34.1386,14.001 C40.5202,4.3711 49.6468,0 63.7139,0 Z" id="path-11"></path>
        <path d="M51.2934,0 C82.3098,0 100.4258,22.7089 100.4258,50.8817 C100.4258,53.9551 100.2541,57.609 99.4992,59.9653 L34.1386,59.9653 L34.1386,60.0336 C36.3342,72.0199 43.8138,78.2008 53.6611,78.2008 C61.6897,78.2008 68.4486,73.4883 71.1936,66.0097 L97.8522,75.8104 C93.4606,91.2456 77.0262,106.3394 52.3914,106.3394 C20.4488,106.3394 0,85.6111 0,52.8965 C0,22.3675 20.2774,0 51.2934,0 Z M51.2934,26.9434 C42.3386,26.9434 36.6777,32.7487 34.31,42.2079 L67.0075,42.2079 C66.6303,33.5 60.2487,26.9434 51.2934,26.9434 Z" id="path-13"></path>
        <path d="M17.5324,0 C27.208,0 35.0652,7.9908 35.0652,17.45 C35.0652,26.9093 27.208,34.9001 17.5324,34.9001 C7.8573,34.9001 0,27.08 0,17.45 C0,7.9908 7.8573,0 17.5324,0 Z" id="path-15"></path>
        <path d="M50.5389,0 L50.5364,101.2857 C50.4077,123.9831 45.1548,139.2248 8.3717,139.2248 L0,139.2248 L0,116.58413 L4.4945,116.58413 C13.9522675,116.58413 16.0057614,111.577487 16.4497647,105.89822 L16.4819613,105.442525 L16.50795,104.984455 L16.5281663,104.530259 L16.5364438,104.302621 L16.5497345,103.84656 C16.5553711,103.618328 16.5595739,103.389852 16.5627,103.1614 L16.571,102.0458 L16.5716,0 L50.5389,0 Z" id="path-17"></path>
        <path d="M128.1824,0 C149.489,1.9806 161.2572,17.4159 161.2572,40.2956 L161.2572,103.5392 L126.7071,103.5392 L126.7071,52.6233 C126.7071,44.8032 120.3597,38.4857 112.5028,38.4857 C104.6456,38.4857 98.2982,44.8374 98.2982,52.6233 L98.2982,103.5392 L62.959,103.5392 L62.959,52.6233 C62.959,44.8032 56.61158,38.4857 48.75472,38.4857 C40.89748,38.4857 34.55006,44.8374 34.55006,52.6233 L34.55006,103.5392 L0,103.5392 L0,2.3221 L34.20699,2.3221 C42.88753,19.0209 59.4937,30.4607 80.6286,30.4607 C101.7638,30.4607 119.9478,17.9622 128.1824,0 Z" id="path-19"></path>
        <path d="M37.94699,0 C58.91049,0 75.89399,16.9037 75.89399,37.7686 C75.89399,58.6335 58.91049,75.5372 37.94699,75.5372 C16.98343,75.5372 0,58.6335 0,37.7686 C0,16.9037 16.98343,0 37.94699,0 Z" id="path-21"></path>
        <path d="M128.1824,0 C149.489,1.9806 161.2572,17.4159 161.2572,40.2956 L161.2572,103.5392 L126.7071,103.5392 L126.7071,52.6233 C126.7071,44.8032 120.3597,38.4857 112.5029,38.4857 C104.6456,38.4857 98.2982,44.8374 98.2982,52.6233 L98.2982,103.5392 L62.959,103.5392 L62.959,52.6233 C62.959,44.8032 56.6116,38.4857 48.7548,38.4857 C40.8975,38.4857 34.5501,44.8374 34.5501,52.6233 L34.5501,103.5392 L0,103.5392 L0,2.3221 L34.207,2.3221 C42.8876,19.0209 59.4937,30.4607 80.6286,30.4607 C101.7639,30.4607 119.9479,17.9622 128.1824,0 Z" id="path-23"></path>
        <path d="M37.947,0 C58.9106,0 75.894,16.9037 75.894,37.7686 C75.894,58.6335 58.9106,75.5372 37.947,75.5372 C16.9835,75.5372 0,58.6335 0,37.7686 C0,16.9037 16.9835,0 37.947,0 Z" id="path-25"></path>
        <path d="M46.7305,0 C59.1505,0 68.8255,4.5418 75.5855,14.001 L76.1345,14.001 L76.1345,2.7319 L110.1005,2.7319 L110.1005,103.7783 L76.6835,103.7783 L76.6835,90.4944 L76.1345,90.4944 C68.9975,101.5927 60.0765,106.3053 46.7305,106.3053 C22.267,106.3053 0,86.1233 0,53.238 C0,20.3527 21.1694,0 46.7305,0 Z M55.1363,30.3583 C43.0934,30.3583 33.9669,39.2711 33.9669,53.0673 C33.9669,66.8634 42.9217,76.1519 55.1363,76.1519 C67.3505,76.1519 76.1345,66.5219 76.1345,53.0673 C76.1345,39.2711 67.1795,30.3583 55.1363,30.3583 Z" id="path-27"></path>
    </defs>
    <g id="logo-HD" stroke="none" stroke-width="1" fill="none" fill-rule="evenodd">
        <g id="Group-3" transform="translate(1063.317, 83.3476)">
            <mask id="mask-2" fill="white">
                <use xlink:href="#path-1"></use>
            </mask>
            <g id="Clip-2"></g>
            <polygon id="Fill-1" fill="#025C67" mask="url(#mask-2)" points="-1 -1 35.447 -1 35.447 146.474 -1 146.474"></polygon>
        </g>
        <g id="Group-6" transform="translate(1105.553, 83.3476)">
            <mask id="mask-4" fill="white">
                <use xlink:href="#path-3"></use>
            </mask>
            <g id="Clip-5"></g>
            <polygon id="Fill-4" fill="#025C67" mask="url(#mask-4)" points="-1 -1 35.447 -1 35.447 146.474 -1 146.474"></polygon>
        </g>
        <g id="Group-9" transform="translate(204.2961, 125.0775)">
            <mask id="mask-6" fill="white">
                <use xlink:href="#path-5"></use>
            </mask>
            <g id="Clip-8"></g>
            <polygon id="Fill-7" fill="#025C67" mask="url(#mask-6)" points="-1 -1 111.1009 -1 111.1009 107.3053 -1 107.3053"></polygon>
        </g>
        <g id="Group-12" transform="translate(322.2197, 127.6045)">
            <mask id="mask-8" fill="white">
                <use xlink:href="#path-7"></use>
            </mask>
            <g id="Clip-11"></g>
            <polygon id="Fill-10" fill="#025C67" mask="url(#mask-8)" points="-1 -1 66.1892 -1 66.1892 102.2171 -1 102.2171"></polygon>
        </g>
        <g id="Group-15" transform="translate(437.0553, 125.0775)">
            <mask id="mask-10" fill="white">
                <use xlink:href="#path-9"></use>
            </mask>
            <g id="Clip-14"></g>
            <polygon id="Fill-13" fill="#025C67" mask="url(#mask-10)" points="-1 -1 111.1013 -1 111.1013 107.3053 -1 107.3053"></polygon>
        </g>
        <g id="Group-18" transform="translate(555.5624, 125.0433)">
            <mask id="mask-12" fill="white">
                <use xlink:href="#path-11"></use>
            </mask>
            <g id="Clip-17"></g>
            <polygon id="Fill-16" fill="#025C67" mask="url(#mask-12)" points="-1 -1 103.6214 -1 103.6214 104.7783 -1 104.7783"></polygon>
        </g>
        <g id="Group-21" transform="translate(663.296, 125.0092)">
            <mask id="mask-14" fill="white">
                <use xlink:href="#path-13"></use>
            </mask>
            <g id="Clip-20"></g>
            <polygon id="Fill-19" fill="#025C67" mask="url(#mask-14)" points="-1 -1 101.4258 -1 101.4258 107.3394 -1 107.3394"></polygon>
        </g>
        <g id="Group-24" transform="translate(395.2999, 85.0892)">
            <mask id="mask-16" fill="white">
                <use xlink:href="#path-15"></use>
            </mask>
            <g id="Clip-23"></g>
            <polygon id="Fill-22" fill="#025C67" mask="url(#mask-16)" points="-1 -1 36.0652 -1 36.0652 35.9001 -1 35.9001"></polygon>
        </g>
        <g id="Group-27" transform="translate(379.2773, 127.7752)">
            <mask id="mask-18" fill="white">
                <use xlink:href="#path-17"></use>
            </mask>
            <g id="Clip-26"></g>
            <polygon id="Fill-25" fill="#025C67" mask="url(#mask-18)" points="-1 -1 51.5389 -1 51.5389 140.2248 -1 140.2248"></polygon>
        </g>
        <g id="Group-30" transform="translate(37, 125.2824)">
            <mask id="mask-20" fill="white">
                <use xlink:href="#path-19"></use>
            </mask>
            <g id="Clip-29"></g>
            <polygon id="Fill-28" fill="#025C67" mask="url(#mask-20)" points="-1 -1 162.2572 -1 162.2572 104.5392 -1 104.5392"></polygon>
        </g>
        <g id="Group-33" transform="translate(79.6816, 66)">
            <mask id="mask-22" fill="white">
                <use xlink:href="#path-21"></use>
            </mask>
            <g id="Clip-32"></g>
            <polygon id="Fill-31" fill="#00AFAB" mask="url(#mask-22)" points="-1 -1 76.89399 -1 76.89399 76.5372 -1 76.5372"></polygon>
        </g>
        <g id="Group-36" transform="translate(777.855, 125.2824)">
            <mask id="mask-24" fill="white">
                <use xlink:href="#path-23"></use>
            </mask>
            <g id="Clip-35"></g>
            <polygon id="Fill-34" fill="#025C67" mask="url(#mask-24)" points="-1 -1 162.2572 -1 162.2572 104.5392 -1 104.5392"></polygon>
        </g>
        <g id="Group-39" transform="translate(820.5366, 66)">
            <mask id="mask-26" fill="white">
                <use xlink:href="#path-25"></use>
            </mask>
            <g id="Clip-38"></g>
            <polygon id="Fill-37" fill="#00AFAB" mask="url(#mask-26)" points="-1 -1 76.894 -1 76.894 76.5372 -1 76.5372"></polygon>
        </g>
        <g id="Group-42" transform="translate(944.3985, 125.0775)">
            <mask id="mask-28" fill="white">
                <use xlink:href="#path-27"></use>
            </mask>
            <g id="Clip-41"></g>
            <polygon id="Fill-40" fill="#025C67" mask="url(#mask-28)" points="-1 -1 111.1005 -1 111.1005 107.3053 -1 107.3053"></polygon>
        </g>
    </g>
</svg>